<svg width="20" height="24" viewBox="0 0 32 36" fill="none" xmlns="http://www.w3.org/2000/svg">
<g clip-path="url(#clip0_125_140)">
<path d="M9.77376 10.4062V7.59375C9.77376 7.12969 10.1458 6.75 10.6004 6.75H13.3559C13.8106 6.75 14.1826 7.12969 14.1826 7.59375V10.4062C14.1826 10.8703 13.8106 11.25 13.3559 11.25H10.6004C10.1458 11.25 9.77376 10.8703 9.77376 10.4062ZM19.4181 11.25H22.1736C22.6283 11.25 23.0003 10.8703 23.0003 10.4062V7.59375C23.0003 7.12969 22.6283 6.75 22.1736 6.75H19.4181C18.9635 6.75 18.5915 7.12969 18.5915 7.59375V10.4062C18.5915 10.8703 18.9635 11.25 19.4181 11.25ZM10.6004 18H13.3559C13.8106 18 14.1826 17.6203 14.1826 17.1562V14.3438C14.1826 13.8797 13.8106 13.5 13.3559 13.5H10.6004C10.1458 13.5 9.77376 13.8797 9.77376 14.3438V17.1562C9.77376 17.6203 10.1458 18 10.6004 18ZM19.4181 18H22.1736C22.6283 18 23.0003 17.6203 23.0003 17.1562V14.3438C23.0003 13.8797 22.6283 13.5 22.1736 13.5H19.4181C18.9635 13.5 18.5915 13.8797 18.5915 14.3438V17.1562C18.5915 17.6203 18.9635 18 19.4181 18ZM14.1826 23.9062V21.0938C14.1826 20.6297 13.8106 20.25 13.3559 20.25H10.6004C10.1458 20.25 9.77376 20.6297 9.77376 21.0938V23.9062C9.77376 24.3703 10.1458 24.75 10.6004 24.75H13.3559C13.8106 24.75 14.1826 24.3703 14.1826 23.9062ZM19.4181 24.75H22.1736C22.6283 24.75 23.0003 24.3703 23.0003 23.9062V21.0938C23.0003 20.6297 22.6283 20.25 22.1736 20.25H19.4181C18.9635 20.25 18.5915 20.6297 18.5915 21.0938V23.9062C18.5915 24.3703 18.9635 24.75 19.4181 24.75ZM31.818 33.4688V36H0.956055V33.4688C0.956055 33.0047 1.32805 32.625 1.78271 32.625H3.12604V1.6875C3.12604 0.752344 3.86314 0 4.77935 0H27.9947C28.9109 0 29.648 0.752344 29.648 1.6875V32.625H30.9913C31.446 32.625 31.818 33.0047 31.818 33.4688ZM6.43267 32.5547H14.1826V27.8438C14.1826 27.3797 14.5546 27 15.0093 27H17.7648C18.2195 27 18.5915 27.3797 18.5915 27.8438V32.5547H26.3414V3.44531L6.46712 3.375L6.43267 32.5547Z" fill="#EF7F1B"/>
</g>
<defs>
<clipPath id="clip0_125_140">
<rect width="30.8619" height="36" fill="white" transform="translate(0.956055)"/>
</clipPath>
</defs>
</svg>
