<svg width="21" height="20" viewBox="0 0 31 30" fill="none" xmlns="http://www.w3.org/2000/svg">
<g clip-path="url(#clip0_125_156)">
<path d="M15.898 20.625C14.9338 20.625 13.9696 20.3073 13.1471 19.6635L0.964844 10.1484V23.4375C0.964844 24.9902 2.21842 26.25 3.76482 26.25H28.0313C29.5777 26.25 30.8312 24.9908 30.8312 23.4375V10.1484L18.6514 19.6699C17.8289 20.3086 16.8605 20.625 15.898 20.625ZM1.91509 8.51367L14.2933 18.1875C15.2377 18.9258 16.5607 18.9258 17.5051 18.1875L29.8833 8.51367C30.4288 8.04492 30.8312 7.32422 30.8312 6.5625C30.8312 5.00918 29.5771 3.75 28.0313 3.75H3.76482C2.21842 3.75 0.964844 5.00918 0.964844 6.5625C0.964844 7.32422 1.31542 8.04492 1.91509 8.51367Z" fill="#EF7F1B"/>
</g>
<defs>
<clipPath id="clip0_125_156">
<rect width="29.8664" height="30" fill="white" transform="translate(0.964844)"/>
</clipPath>
</defs>
</svg>
