<svg width="30" height="30" viewBox="0 0 50 50" fill="none" xmlns="http://www.w3.org/2000/svg">
<path fill-rule="evenodd" clip-rule="evenodd" d="M43.8912 0C47.2628 0 50 2.7373 50 6.10879V43.8912C50 47.2627 47.2627 50 43.8912 50H33.4939V31.1606H39.9979L41.2354 23.0922H33.4939V17.8562C33.4939 15.6488 34.5753 13.4972 38.0428 13.4972H41.5625V6.62803C41.5625 6.62803 38.3682 6.08291 35.3143 6.08291C28.9385 6.08291 24.7713 9.94707 24.7713 16.9427V23.0922H17.6841V31.1606H24.7713V50H6.10879C2.7373 50 0 47.2627 0 43.8912V6.10879C0 2.7373 2.73721 0 6.10879 0L43.8912 0Z" fill="#EF7F1B"/>
</svg>
