<svg width="70" height="56" viewBox="0 0 93 79" fill="none" xmlns="http://www.w3.org/2000/svg">
<g clip-path="url(#clip0_120_412)">
<path d="M79.5695 42.6548H72.3359C73.0871 44.7153 73.4707 46.8916 73.4692 49.0847V76.3156C73.4686 77.2331 73.311 78.1438 73.003 79.0081H84.9063C87.038 79.0081 89.0823 78.1613 90.5896 76.654C92.0969 75.1467 92.9437 73.1024 92.9437 70.9707V56.0934C92.9374 52.5423 91.5283 49.1375 89.0234 46.6205C86.5185 44.1035 83.1205 42.6781 79.5695 42.6548Z" fill="#EF7F1B"/>
<path d="M54.6538 35.646H38.2013C34.6364 35.6503 31.2187 37.0683 28.698 39.5891C26.1772 42.1099 24.7591 45.5277 24.7549 49.0926V76.3154C24.7549 77.0295 25.0386 77.7144 25.5435 78.2194C26.0484 78.7243 26.7333 79.008 27.4474 79.008H65.4238C66.1379 79.008 66.8227 78.7243 67.3277 78.2194C67.8326 77.7144 68.1163 77.0295 68.1163 76.3154V49.0926C68.112 45.5249 66.6918 42.1047 64.1675 39.5835C61.6433 37.0622 58.2215 35.646 54.6538 35.646Z" fill="#EF7F1B"/>
<path d="M46.4314 0C43.2353 0.00158971 40.1115 0.950699 37.4547 2.72735C34.7979 4.50401 32.7275 7.02845 31.5052 9.98158C30.2828 12.9347 29.9634 16.1839 30.5873 19.3186C31.2112 22.4532 32.7505 25.3325 35.0104 27.5925C37.2704 29.8525 40.1496 31.3917 43.2842 32.0156C46.4188 32.6395 49.668 32.3201 52.6211 31.0978C55.5742 29.8754 58.0986 27.805 59.8752 25.1481C61.6518 22.4913 62.6009 19.3674 62.6025 16.1713C62.5983 11.8837 60.8932 7.77296 57.8614 4.74117C54.8297 1.70938 50.719 0.00425568 46.4314 0Z" fill="#EF7F1B"/>
<path d="M74.8275 15.0702C72.443 15.0702 70.1121 15.7773 68.1295 17.102C66.1469 18.4268 64.6017 20.3097 63.6892 22.5127C62.7767 24.7156 62.538 27.1397 63.0031 29.4784C63.4683 31.8171 64.6166 33.9653 66.3026 35.6513C67.9887 37.3374 70.1368 38.4857 72.4755 38.9509C74.8141 39.416 77.2382 39.1773 79.4411 38.2648C81.6441 37.3523 83.527 35.807 84.8517 33.8244C86.1764 31.8418 86.8835 29.5108 86.8835 27.1263C86.8708 23.9328 85.5965 20.8736 83.3383 18.6154C81.0802 16.3572 78.021 15.0829 74.8275 15.0702Z" fill="#EF7F1B"/>
<path d="M13.4465 42.6548H20.6801C19.9289 44.7153 19.5453 46.8916 19.5468 49.0847V76.3156C19.5474 77.2331 19.705 78.1438 20.013 79.0081H8.03733C5.9057 79.0081 3.86137 78.1613 2.35408 76.654C0.846788 75.1467 0 73.1024 0 70.9707L0 56.0934C0.00637991 52.5298 1.42536 49.1141 3.94591 46.5951C6.46646 44.076 9.88293 42.659 13.4465 42.6548Z" fill="#EF7F1B"/>
<path d="M18.1722 15.0702C20.5567 15.0702 22.8876 15.7773 24.8702 17.102C26.8528 18.4268 28.398 20.3097 29.3105 22.5127C30.223 24.7156 30.4617 27.1397 29.9966 29.4784C29.5314 31.8171 28.3832 33.9653 26.6971 35.6513C25.011 37.3374 22.8629 38.4857 20.5242 38.9509C18.1856 39.416 15.7615 39.1773 13.5586 38.2648C11.3556 37.3523 9.47274 35.807 8.14801 33.8244C6.82328 31.8418 6.11621 29.5108 6.11621 27.1263C6.12891 23.9328 7.40317 20.8736 9.66136 18.6154C11.9196 16.3572 14.9787 15.0829 18.1722 15.0702Z" fill="#EF7F1B"/>
</g>
<defs>
<clipPath id="clip0_120_412">
<rect width="93" height="79" fill="white"/>
</clipPath>
</defs>
</svg>
