<svg width="18" height="27" viewBox="0 0 25 34" fill="none" xmlns="http://www.w3.org/2000/svg">
<path d="M22.6314 26.6046C21.2056 24.1044 19.7214 23.0079 17.4531 24.3286L16.8676 24.6874C13.1777 24.6269 11.1102 19.6938 10.4081 18.826C10.0149 17.7699 6.84353 13.5162 8.5675 10.1281L9.15296 9.7693C11.3608 8.34318 11.1491 6.46188 9.72329 3.9617C8.45516 1.74405 7.8157 -0.318878 5.94914 0.826945L4.77823 1.54673C3.34375 2.42796 2.26357 3.63881 1.65435 4.90347C1.65435 4.90347 -0.19708 8.08308 0.725394 12.4152C0.969515 13.5611 1.39078 14.6284 1.95248 15.6128L5.50411 21.8419L9.05574 28.0711C9.61744 29.0555 10.3174 29.9524 11.1664 30.726C14.381 33.65 17.9564 33.4952 17.9564 33.4952C19.3196 33.549 20.86 33.1477 22.2944 32.2664L23.4653 31.5467C25.3319 30.4008 23.8974 28.8267 22.6293 26.6024L22.6314 26.6046Z" fill="#EF7F1B"/>
</svg>
