<svg width="70" height="75" viewBox="0 0 83 88" fill="none" xmlns="http://www.w3.org/2000/svg">
<path d="M63.8541 3.39618C69.909 2.34851 75.9643 1.30052 82.2209 0.217529C81.0379 6.39527 79.8721 12.4822 78.6683 18.7689C77.5517 17.6542 76.4607 16.6785 75.5124 15.578C74.848 14.808 74.4357 14.9661 73.8105 15.5827C69.8684 19.4733 65.9015 23.3395 61.9383 27.2097C54.8657 34.1172 47.7803 41.0129 40.7311 47.9445C40.1426 48.5231 39.8491 48.4301 39.325 47.9264C36.3668 45.0874 33.3621 42.2962 30.4132 39.448C29.8382 38.8938 29.5342 38.8512 28.9424 39.4486C22.4666 45.9703 15.9508 52.4521 9.47469 58.9714C8.88418 59.5689 8.57259 59.6689 7.93619 59.0127C6.05805 57.0748 4.10729 55.2059 2.1562 53.3396C1.72511 52.9267 1.72643 52.7 2.15322 52.2765C11.2383 43.2584 20.3171 34.2331 29.3642 25.1764C30.0065 24.5341 30.2901 24.9298 30.6885 25.3064C33.6173 28.0745 36.5566 30.8329 39.4554 33.6327C39.9323 34.0944 40.1459 34.0585 40.6024 33.6175C48.6718 25.8283 56.7633 18.0602 64.8499 10.2882C65.5576 9.60891 66.2359 8.89198 66.9967 8.27672C67.6777 7.72582 67.5523 7.35943 66.9674 6.83922C65.8266 5.82225 64.7413 4.7429 63.6342 3.68962C63.7072 3.59258 63.7818 3.49487 63.8541 3.39618Z" fill="#EF7F1B"/>
<path d="M23.2013 65.0552H0.578125V87.0641H23.2013V65.0552Z" fill="#EF7F1B"/>
<path d="M52.4934 54.6797H29.8691V87.064H52.4934V54.6797Z" fill="#EF7F1B"/>
<path d="M81.6786 40.5735H59.0547V87.0894H81.6786V40.5735Z" fill="#EF7F1B"/>
</svg>
